<svg version="1.1" id="Layer_1" xmlns="http://www.w3.org/2000/svg" xmlns:xlink="http://www.w3.org/1999/xlink" x="0px" y="0px"
	 width="100%" viewBox="0 0 873 862" enable-background="new 0 0 873 862" xml:space="preserve">
<path fill="#E8E8E8" opacity="1.000000" stroke="none" 
	d="
M874.000000,315.000000 
	C874.000000,497.999908 874.000000,680.499817 874.000000,862.999817 
	C583.000183,862.999878 292.000397,862.999878 1.000445,862.999939 
	C1.000296,575.666992 1.000296,288.333954 1.000148,1.000715 
	C291.999542,1.000476 582.999084,1.000476 873.999329,1.000238 
	C874.000000,105.500000 874.000000,210.000000 874.000000,315.000000 
M834.117310,40.457802 
	C833.758606,40.349571 833.399841,40.241341 832.824585,39.454594 
	C824.236511,22.430874 810.665039,12.135399 791.405884,12.120917 
	C548.479553,11.938240 305.553040,12.000208 62.626610,12.015529 
	C60.636665,12.015655 58.600895,12.001551 56.663761,12.384638 
	C32.585739,17.146284 17.102310,35.919151 17.100239,60.509895 
	C17.079971,301.103729 17.080256,541.697571 17.149912,782.291382 
	C17.151150,786.572021 17.702772,790.937561 18.644514,795.117737 
	C22.109737,810.498718 31.931190,820.822815 45.800755,828.674744 
	C46.194775,828.809143 46.588795,828.943604 46.979351,829.008484 
	C46.979351,829.008484 46.914673,829.034119 46.385860,829.649841 
	C54.080513,844.052429 65.810417,853.789001 82.267426,853.807617 
	C327.760834,854.085999 573.254700,854.008179 818.748413,853.984436 
	C838.696106,853.982544 858.999573,833.467224 858.999634,813.525818 
	C859.000122,568.865356 858.950439,324.204926 859.109924,79.544594 
	C859.120728,62.935867 851.297913,51.527763 838.435486,42.571991 
	C837.184326,41.700855 835.492310,41.462868 833.984924,41.006481 
	C833.984924,41.006481 834.059448,41.029808 834.117310,40.457802 
z"/>
<path fill="#ABC4AA" opacity="1.000000" stroke="none" 
	d="
M45.543938,827.972351 
	C31.931190,820.822815 22.109737,810.498718 18.644514,795.117737 
	C17.702772,790.937561 17.151150,786.572021 17.149912,782.291382 
	C17.080256,541.697571 17.079971,301.103729 17.100239,60.509895 
	C17.102310,35.919151 32.585739,17.146284 56.663761,12.384638 
	C58.600895,12.001551 60.636665,12.015655 62.626610,12.015529 
	C305.553040,12.000208 548.479553,11.938240 791.405884,12.120917 
	C810.665039,12.135399 824.236511,22.430874 833.088806,39.958130 
	C833.570618,40.673286 833.806091,40.862667 834.059448,41.029808 
	C834.059448,41.029808 833.984924,41.006481 834.011536,41.361008 
	C835.030090,48.066376 836.884216,54.416561 836.889038,60.768154 
	C837.041382,260.923859 837.014038,461.079712 837.013916,661.235535 
	C837.013916,702.899963 837.170959,744.565247 836.924011,786.228210 
	C836.841980,800.074829 830.869507,811.518250 820.290405,820.555481 
	C810.232849,829.147339 798.332764,831.781433 785.516296,831.780823 
	C556.695374,831.770203 327.874420,831.801575 99.053505,831.716736 
	C81.648689,831.710266 64.118126,833.300171 46.914673,829.034119 
	C46.914673,829.034119 46.979351,829.008484 46.875084,828.731079 
	C46.361862,828.293213 45.952900,828.132751 45.543938,827.972351 
M691.243103,654.597595 
	C693.600342,651.791504 695.984985,649.007812 698.310730,646.175903 
	C748.662720,584.866028 774.848999,514.273010 778.787292,435.306122 
	C780.093140,409.123383 777.994690,383.090698 773.194824,357.266571 
	C760.883484,291.030304 732.240784,232.769592 686.511230,183.443268 
	C621.668823,113.500755 540.880920,76.386070 445.896637,70.225929 
	C420.253113,68.562836 394.589172,69.874146 369.222229,74.308975 
	C290.101196,88.141479 222.655655,123.913528 168.246704,183.156830 
	C106.988548,249.857910 77.282097,329.314209 75.298470,419.409180 
	C74.799416,442.075745 76.966476,464.669739 81.335854,486.937927 
	C96.307167,563.237671 131.820541,628.295715 189.259552,680.877319 
	C251.323807,737.692993 324.945068,767.640991 408.689087,772.784607 
	C430.802917,774.142883 452.942078,773.211853 474.986145,770.179138 
	C522.482300,763.644836 567.027710,748.554749 607.849915,723.482605 
	C624.822754,713.058228 640.479004,700.490112 657.394592,689.160400 
	C665.330139,696.996094 673.364807,704.736511 681.094360,712.770447 
	C682.250977,713.972595 682.413208,716.579163 682.290161,718.488098 
	C681.727112,727.225708 679.344360,736.147095 680.441284,744.637268 
	C684.661316,777.299255 715.830383,799.086731 747.346191,794.160706 
	C774.250244,789.955566 797.207703,765.252930 796.773804,735.711914 
	C796.476624,715.480957 787.278259,699.199341 770.510437,687.841553 
	C755.159058,677.443298 738.232178,675.230103 720.483154,680.783447 
	C717.538208,681.704895 715.628296,681.341797 713.532227,679.042480 
	C709.721680,674.862610 705.502869,671.058105 701.597473,666.960571 
	C697.960876,663.145020 694.510498,659.151917 691.243103,654.597595 
z"/>
<path fill="#675D50" opacity="1.000000" stroke="none" 
	d="
M46.650269,829.341980 
	C64.118126,833.300171 81.648689,831.710266 99.053505,831.716736 
	C327.874420,831.801575 556.695374,831.770203 785.516296,831.780823 
	C798.332764,831.781433 810.232849,829.147339 820.290405,820.555481 
	C830.869507,811.518250 836.841980,800.074829 836.924011,786.228210 
	C837.170959,744.565247 837.013916,702.899963 837.013916,661.235535 
	C837.014038,461.079712 837.041382,260.923859 836.889038,60.768154 
	C836.884216,54.416561 835.030090,48.066376 834.021545,41.323257 
	C835.492310,41.462868 837.184326,41.700855 838.435486,42.571991 
	C851.297913,51.527763 859.120728,62.935867 859.109924,79.544594 
	C858.950439,324.204926 859.000122,568.865356 858.999634,813.525818 
	C858.999573,833.467224 838.696106,853.982544 818.748413,853.984436 
	C573.254700,854.008179 327.760834,854.085999 82.267426,853.807617 
	C65.810417,853.789001 54.080513,844.052429 46.650269,829.341980 
z"/>
<path fill="#675D50" opacity="1.000000" stroke="none" 
	d="
M834.088379,40.743805 
	C833.806091,40.862667 833.570618,40.673286 833.197083,40.297390 
	C833.399841,40.241341 833.758606,40.349571 834.088379,40.743805 
z"/>
<path fill="#675D50" opacity="1.000000" stroke="none" 
	d="
M45.672348,828.323547 
	C45.952900,828.132751 46.361862,828.293213 46.876816,828.765869 
	C46.588795,828.943604 46.194775,828.809143 45.672348,828.323547 
z"/>
<path fill="#675D50" opacity="1.000000" stroke="none" 
	d="
M656.733948,688.896851 
	C640.479004,700.490112 624.822754,713.058228 607.849915,723.482605 
	C567.027710,748.554749 522.482300,763.644836 474.986145,770.179138 
	C452.942078,773.211853 430.802917,774.142883 408.689087,772.784607 
	C324.945068,767.640991 251.323807,737.692993 189.259552,680.877319 
	C131.820541,628.295715 96.307167,563.237671 81.335854,486.937927 
	C76.966476,464.669739 74.799416,442.075745 75.298470,419.409180 
	C77.282097,329.314209 106.988548,249.857910 168.246704,183.156830 
	C222.655655,123.913528 290.101196,88.141479 369.222229,74.308975 
	C394.589172,69.874146 420.253113,68.562836 445.896637,70.225929 
	C540.880920,76.386070 621.668823,113.500755 686.511230,183.443268 
	C732.240784,232.769592 760.883484,291.030304 773.194824,357.266571 
	C777.994690,383.090698 780.093140,409.123383 778.787292,435.306122 
	C774.848999,514.273010 748.662720,584.866028 698.310730,646.175903 
	C695.984985,649.007812 693.600342,651.791504 690.773804,654.834106 
	C688.828369,653.737915 687.290222,652.467041 685.885071,651.063171 
	C657.976807,623.179321 630.086365,595.277588 602.181152,567.390686 
	C600.710571,565.921021 599.141174,564.550232 598.452942,563.910156 
	C587.174316,575.024963 576.333984,585.707764 564.409851,597.458679 
	C571.106323,603.763489 578.075623,610.325012 585.546326,617.358765 
	C584.401245,618.181641 583.578979,618.728943 582.803589,619.336182 
	C561.539429,635.987732 538.432434,649.572815 512.707947,657.778076 
	C495.509064,663.263916 477.622192,666.593018 459.859222,670.753174 
	C459.127441,670.773010 458.579651,670.927002 457.587372,671.028687 
	C455.094299,671.249573 453.045685,671.522766 450.712158,671.654114 
	C449.622772,671.686218 448.818329,671.860291 447.547119,671.984131 
	C439.604340,672.082947 432.103241,672.688599 424.657959,672.278931 
	C412.063690,671.585815 399.504761,670.250732 386.735596,668.999695 
	C386.026062,668.808228 385.511902,668.802673 384.612305,668.592896 
	C378.791901,667.329163 373.356842,666.269592 367.734436,665.012695 
	C367.027924,664.747253 366.508759,664.679138 365.628113,664.422974 
	C313.025879,650.225830 269.832550,622.048218 235.139160,580.246277 
	C232.031570,582.856323 229.439224,585.033691 226.748016,587.294067 
	C228.028381,588.935364 228.903824,590.144714 229.866989,591.279602 
	C255.718567,621.741272 286.793121,645.315979 323.418640,661.293030 
	C333.418854,665.655457 344.030060,668.617249 354.538788,672.479492 
	C355.479034,672.962463 356.241364,673.187866 357.368530,673.602417 
	C363.519012,675.112976 369.304626,676.434448 375.279175,677.947388 
	C375.979889,678.160706 376.491669,678.182495 377.377533,678.414856 
	C380.524078,679.021423 383.296570,679.417542 386.267273,679.994263 
	C386.975983,680.160706 387.486450,680.146484 388.379944,680.328369 
	C390.187164,680.649963 391.611420,680.775452 393.253235,681.053162 
	C393.979309,681.181335 394.487823,681.157288 395.409912,681.326111 
	C401.563110,681.976440 407.302734,682.433899 413.288391,683.062744 
	C414.699066,683.178101 415.863708,683.122009 417.453979,683.157410 
	C425.572754,683.200256 433.265839,683.151611 441.187683,683.249756 
	C442.273956,683.255432 443.131561,683.114441 444.439819,683.026123 
	C454.924347,681.844482 464.958130,680.610168 475.248657,679.473145 
	C476.002045,679.376221 476.498688,679.182068 477.412903,679.004761 
	C478.887817,678.719910 479.945221,678.418152 481.246674,678.221741 
	C481.967590,678.149841 482.444458,677.972595 483.315704,677.836426 
	C485.492950,677.469055 487.278809,677.073181 489.058228,676.650269 
	C525.738770,667.930786 558.973633,652.005249 588.723816,628.853760 
	C589.931763,627.913757 590.547302,626.212524 591.396118,624.393433 
	C591.313965,623.607117 591.274536,623.293274 591.581055,623.203430 
	C612.746399,644.191223 633.570984,664.949768 654.367249,685.736572 
	C655.288574,686.657532 655.950928,687.837524 656.733948,688.896851 
M262.733368,417.076141 
	C263.223846,426.871033 262.862610,436.796143 264.337616,446.440460 
	C277.810638,534.534424 357.356232,597.152588 450.429047,584.566345 
	C542.381714,572.131470 605.137573,487.485840 589.539490,393.600433 
	C573.564697,297.448029 480.703186,239.201187 387.290863,261.612732 
	C315.476562,278.842468 266.007507,340.824371 262.733368,417.076141 
M409.437744,164.109985 
	C355.654144,168.380051 307.726990,187.299088 265.225372,221.147675 
	C266.854309,223.252792 268.178253,224.739777 269.246216,226.392242 
	C271.247833,229.489304 273.049500,229.451080 276.044342,227.199249 
	C340.461334,178.764236 412.002136,163.658081 490.314728,182.661774 
	C540.523682,194.845703 582.360046,221.305618 616.533203,259.957001 
	C623.040161,267.316650 622.964233,267.389008 630.299194,260.522369 
	C630.508606,260.326294 630.517029,259.915527 630.898438,258.755707 
	C572.749451,191.894287 499.631256,159.356339 409.437744,164.109985 
z"/>
<path fill="#F2DEBA" opacity="1.000000" stroke="none" 
	d="
M367.921814,665.210022 
	C373.356842,666.269592 378.791901,667.329163 384.699585,668.792603 
	C385.758514,669.192871 386.344727,669.189209 386.930969,669.185547 
	C399.504761,670.250732 412.063690,671.585815 424.657959,672.278931 
	C432.103241,672.688599 439.604340,672.082947 447.720398,672.200195 
	C449.239349,672.242920 450.118225,672.019470 450.997070,671.796021 
	C453.045685,671.522766 455.094299,671.249573 457.754883,671.230469 
	C458.925629,671.285400 459.484406,671.086304 460.043182,670.887268 
	C477.622192,666.593018 495.509064,663.263916 512.707947,657.778076 
	C538.432434,649.572815 561.539429,635.987732 582.803589,619.336182 
	C583.578979,618.728943 584.401245,618.181641 585.546326,617.358765 
	C578.075623,610.325012 571.106323,603.763489 564.409851,597.458679 
	C576.333984,585.707764 587.174316,575.024963 598.452942,563.910156 
	C599.141174,564.550232 600.710571,565.921021 602.181152,567.390686 
	C630.086365,595.277588 657.976807,623.179321 685.885071,651.063171 
	C687.290222,652.467041 688.828369,653.737915 690.641357,655.153809 
	C694.510498,659.151917 697.960876,663.145020 701.597473,666.960571 
	C705.502869,671.058105 709.721680,674.862610 713.532227,679.042480 
	C715.628296,681.341797 717.538208,681.704895 720.483154,680.783447 
	C738.232178,675.230103 755.159058,677.443298 770.510437,687.841553 
	C787.278259,699.199341 796.476624,715.480957 796.773804,735.711914 
	C797.207703,765.252930 774.250244,789.955566 747.346191,794.160706 
	C715.830383,799.086731 684.661316,777.299255 680.441284,744.637268 
	C679.344360,736.147095 681.727112,727.225708 682.290161,718.488098 
	C682.413208,716.579163 682.250977,713.972595 681.094360,712.770447 
	C673.364807,704.736511 665.330139,696.996094 657.064270,689.028625 
	C655.950928,687.837524 655.288574,686.657532 654.367249,685.736572 
	C633.570984,664.949768 612.746399,644.191223 591.433044,623.247253 
	C591.105652,623.666687 591.272278,624.266357 591.438904,624.865967 
	C590.547302,626.212524 589.931763,627.913757 588.723816,628.853760 
	C558.973633,652.005249 525.738770,667.930786 489.058228,676.650269 
	C487.278809,677.073181 485.492950,677.469055 483.178101,677.671143 
	C482.098267,677.682007 481.550446,677.899231 481.002625,678.116455 
	C479.945221,678.418152 478.887817,678.719910 477.270508,678.808472 
	C476.137695,678.855408 475.564819,679.115601 474.991943,679.375854 
	C464.958130,680.610168 454.924347,681.844482 444.237671,682.791992 
	C442.709534,682.704529 441.834259,682.903809 440.958954,683.103027 
	C433.265839,683.151611 425.572754,683.200256 417.242706,682.903259 
	C415.417969,682.668884 414.230133,682.780151 413.042328,682.891357 
	C407.302734,682.433899 401.563110,681.976440 395.311432,681.130249 
	C394.211456,680.794678 393.623535,680.847778 393.035645,680.900879 
	C391.611420,680.775452 390.187164,680.649963 388.286194,680.136108 
	C387.229279,679.769714 386.649170,679.791626 386.069031,679.813599 
	C383.296570,679.417542 380.524078,679.021423 377.293152,678.217407 
	C376.253204,677.791626 375.671753,677.773743 375.090271,677.755920 
	C369.304626,676.434448 363.519012,675.112976 357.233093,673.314697 
	C355.942139,672.632507 355.151520,672.427185 354.360870,672.221863 
	C344.030060,668.617249 333.418854,665.655457 323.418640,661.293030 
	C286.793121,645.315979 255.718567,621.741272 229.866989,591.279602 
	C228.903824,590.144714 228.028381,588.935364 226.748016,587.294067 
	C229.439224,585.033691 232.031570,582.856323 235.139160,580.246277 
	C269.832550,622.048218 313.025879,650.225830 365.697815,664.641724 
	C366.726593,665.102295 367.324219,665.156128 367.921814,665.210022 
z"/>
<path fill="#F3DEBA" opacity="1.000000" stroke="none" 
	d="
M262.765259,416.619934 
	C266.007507,340.824371 315.476562,278.842468 387.290863,261.612732 
	C480.703186,239.201187 573.564697,297.448029 589.539490,393.600433 
	C605.137573,487.485840 542.381714,572.131470 450.429047,584.566345 
	C357.356232,597.152588 277.810638,534.534424 264.337616,446.440460 
	C262.862610,436.796143 263.223846,426.871033 262.765259,416.619934 
M392.117340,394.659210 
	C384.147003,404.893616 380.834229,416.623291 382.529541,429.322601 
	C385.405518,450.866180 400.189423,466.075836 421.661713,469.597351 
	C450.868805,474.387360 477.778107,451.496521 475.382507,419.910187 
	C473.838043,399.545776 462.495056,385.242310 442.957275,379.177185 
	C423.337311,373.086578 406.185242,378.394104 392.117340,394.659210 
z"/>
<path fill="#EEDAB6" opacity="1.000000" stroke="none" 
	d="
M409.898132,164.084534 
	C499.631256,159.356339 572.749451,191.894287 630.898438,258.755707 
	C630.517029,259.915527 630.508606,260.326294 630.299194,260.522369 
	C622.964233,267.389008 623.040161,267.316650 616.533203,259.957001 
	C582.360046,221.305618 540.523682,194.845703 490.314728,182.661774 
	C412.002136,163.658081 340.461334,178.764236 276.044342,227.199249 
	C273.049500,229.451080 271.247833,229.489304 269.246216,226.392242 
	C268.178253,224.739777 266.854309,223.252792 265.225372,221.147675 
	C307.726990,187.299088 355.654144,168.380051 409.898132,164.084534 
z"/>
<path fill="#EED9B6" opacity="1.000000" stroke="none" 
	d="
M413.288391,683.062744 
	C414.230133,682.780151 415.417969,682.668884 416.817047,682.811829 
	C415.863708,683.122009 414.699066,683.178101 413.288391,683.062744 
z"/>
<path fill="#EED9B6" opacity="1.000000" stroke="none" 
	d="
M450.712158,671.654175 
	C450.118225,672.019470 449.239349,672.242920 448.187164,672.250366 
	C448.818329,671.860291 449.622772,671.686218 450.712158,671.654175 
z"/>
<path fill="#EED9B6" opacity="1.000000" stroke="none" 
	d="
M441.187683,683.249756 
	C441.834259,682.903809 442.709534,682.704529 443.786987,682.739380 
	C443.131561,683.114441 442.273956,683.255432 441.187683,683.249756 
z"/>
<path fill="#EED9B6" opacity="1.000000" stroke="none" 
	d="
M459.859222,670.753174 
	C459.484406,671.086304 458.925629,671.285400 458.199341,671.282715 
	C458.579651,670.927002 459.127441,670.773010 459.859222,670.753174 
z"/>
<path fill="#EED9B6" opacity="1.000000" stroke="none" 
	d="
M354.538788,672.479492 
	C355.151520,672.427185 355.942139,672.632507 356.868225,673.125610 
	C356.241364,673.187866 355.479034,672.962463 354.538788,672.479492 
z"/>
<path fill="#EED9B6" opacity="1.000000" stroke="none" 
	d="
M375.279175,677.947388 
	C375.671753,677.773743 376.253204,677.791626 376.919067,678.006958 
	C376.491669,678.182495 375.979889,678.160706 375.279175,677.947388 
z"/>
<path fill="#EED9B6" opacity="1.000000" stroke="none" 
	d="
M481.246674,678.221802 
	C481.550446,677.899231 482.098267,677.682007 482.783691,677.630066 
	C482.444458,677.972595 481.967590,678.149841 481.246674,678.221802 
z"/>
<path fill="#EED9B6" opacity="1.000000" stroke="none" 
	d="
M475.248657,679.473145 
	C475.564819,679.115601 476.137695,678.855408 476.852966,678.791565 
	C476.498688,679.182068 476.002045,679.376221 475.248657,679.473145 
z"/>
<path fill="#EED9B6" opacity="1.000000" stroke="none" 
	d="
M386.735596,668.999634 
	C386.344727,669.189209 385.758514,669.192871 385.084991,668.996826 
	C385.511902,668.802673 386.026062,668.808228 386.735596,668.999634 
z"/>
<path fill="#EED9B6" opacity="1.000000" stroke="none" 
	d="
M386.267273,679.994263 
	C386.649170,679.791626 387.229279,679.769714 387.903198,679.940002 
	C387.486450,680.146484 386.975983,680.160706 386.267273,679.994263 
z"/>
<path fill="#EED9B6" opacity="1.000000" stroke="none" 
	d="
M393.253235,681.053101 
	C393.623535,680.847778 394.211456,680.794678 394.897827,680.937378 
	C394.487823,681.157288 393.979309,681.181335 393.253235,681.053101 
z"/>
<path fill="#EED9B6" opacity="1.000000" stroke="none" 
	d="
M367.734436,665.012695 
	C367.324219,665.156128 366.726593,665.102295 366.059326,664.829712 
	C366.508759,664.679138 367.027924,664.747253 367.734436,665.012695 
z"/>
<path fill="#EED9B6" opacity="1.000000" stroke="none" 
	d="
M591.396118,624.393433 
	C591.272278,624.266357 591.105652,623.666687 591.087036,623.023254 
	C591.274536,623.293274 591.313965,623.607117 591.396118,624.393433 
z"/>
<path fill="#685E51" opacity="1.000000" stroke="none" 
	d="
M392.341705,394.381805 
	C406.185242,378.394104 423.337311,373.086578 442.957275,379.177185 
	C462.495056,385.242310 473.838043,399.545776 475.382507,419.910187 
	C477.778107,451.496521 450.868805,474.387360 421.661713,469.597351 
	C400.189423,466.075836 385.405518,450.866180 382.529541,429.322601 
	C380.834229,416.623291 384.147003,404.893616 392.341705,394.381805 
z"/>
</svg>